<svg width="32" height="33" viewBox="0 0 32 33" fill="none" xmlns="http://www.w3.org/2000/svg">
<path d="M9.17334 26.0334C8.62667 26.0334 8.17334 25.5801 8.17334 25.0334V22.2734C8.17334 21.7268 8.62667 21.2734 9.17334 21.2734C9.72001 21.2734 10.1733 21.7268 10.1733 22.2734V25.0334C10.1733 25.5934 9.72001 26.0334 9.17334 26.0334Z" fill="#757575"/>
<path d="M16 26.0333C15.4533 26.0333 15 25.58 15 25.0333V19.5C15 18.9533 15.4533 18.5 16 18.5C16.5467 18.5 17 18.9533 17 19.5V25.0333C17 25.5933 16.5467 26.0333 16 26.0333Z" fill="#757575"/>
<path d="M22.8267 26.0336C22.28 26.0336 21.8267 25.5802 21.8267 25.0336V16.7402C21.8267 16.1936 22.28 15.7402 22.8267 15.7402C23.3733 15.7402 23.8267 16.1936 23.8267 16.7402V25.0336C23.8267 25.5936 23.3867 26.0336 22.8267 26.0336Z" fill="#757575"/>
<path d="M9.17331 18.4069C8.71998 18.4069 8.31998 18.1002 8.19998 17.6469C8.06664 17.1136 8.38664 16.5669 8.93331 16.4336C13.84 15.2069 18.16 12.5269 21.4533 8.70022L22.0666 7.98022C22.4266 7.56689 23.0533 7.51355 23.48 7.87355C23.8933 8.23355 23.9466 8.86022 23.5866 9.28689L22.9733 10.0069C19.4133 14.1669 14.72 17.0602 9.41331 18.3802C9.33331 18.4069 9.25331 18.4069 9.17331 18.4069Z" fill="#757575"/>
<path d="M22.8266 13.5266C22.2799 13.5266 21.8266 13.0733 21.8266 12.5266V9.6333H18.9199C18.3733 9.6333 17.9199 9.17997 17.9199 8.6333C17.9199 8.08663 18.3733 7.6333 18.9199 7.6333H22.8266C23.3733 7.6333 23.8266 8.08663 23.8266 8.6333V12.54C23.8266 13.0866 23.3866 13.5266 22.8266 13.5266Z" fill="#757575"/>
<path d="M20 31.1667H12C4.75996 31.1667 1.66663 28.0733 1.66663 20.8333V12.8333C1.66663 5.59333 4.75996 2.5 12 2.5H20C27.24 2.5 30.3333 5.59333 30.3333 12.8333V20.8333C30.3333 28.0733 27.24 31.1667 20 31.1667ZM12 4.5C5.85329 4.5 3.66663 6.68667 3.66663 12.8333V20.8333C3.66663 26.98 5.85329 29.1667 12 29.1667H20C26.1466 29.1667 28.3333 26.98 28.3333 20.8333V12.8333C28.3333 6.68667 26.1466 4.5 20 4.5H12Z" fill="#757575"/>
</svg>
