<svg width="32" height="33" viewBox="0 0 32 33" fill="none" xmlns="http://www.w3.org/2000/svg">
<path d="M14.4133 23.4335C14.16 23.4335 13.9066 23.3402 13.7066 23.1402L11.7066 21.1402C11.32 20.7535 11.32 20.1135 11.7066 19.7268C12.0933 19.3402 12.7333 19.3402 13.12 19.7268L14.4133 21.0202L19.04 16.3935C19.4266 16.0068 20.0666 16.0068 20.4533 16.3935C20.84 16.7802 20.84 17.4202 20.4533 17.8068L15.12 23.1402C14.9333 23.3402 14.6666 23.4335 14.4133 23.4335Z" fill="#757575"/>
<path d="M18.6666 9.83333H13.3333C12.0533 9.83333 9.66663 9.83333 9.66663 6.16667C9.66663 2.5 12.0533 2.5 13.3333 2.5H18.6666C19.9466 2.5 22.3333 2.5 22.3333 6.16667C22.3333 7.44667 22.3333 9.83333 18.6666 9.83333ZM13.3333 4.5C12.0133 4.5 11.6666 4.5 11.6666 6.16667C11.6666 7.83333 12.0133 7.83333 13.3333 7.83333H18.6666C20.3333 7.83333 20.3333 7.48667 20.3333 6.16667C20.3333 4.5 19.9866 4.5 18.6666 4.5H13.3333Z" fill="#757575"/>
<path d="M20 31.1669H12C4.50667 31.1669 3 27.7269 3 22.1669V14.1669C3 8.0869 5.2 5.4869 10.6133 5.2069C11.16 5.18023 11.64 5.59357 11.6667 6.15357C11.6933 6.71357 11.2667 7.1669 10.72 7.19357C6.93333 7.4069 5 8.54024 5 14.1669V22.1669C5 27.1002 5.97333 29.1669 12 29.1669H20C26.0267 29.1669 27 27.1002 27 22.1669V14.1669C27 8.54024 25.0667 7.4069 21.28 7.19357C20.7333 7.1669 20.3067 6.6869 20.3333 6.14023C20.36 5.59357 20.8267 5.1669 21.3867 5.19357C26.8 5.4869 29 8.0869 29 14.1536V22.1536C29 27.7269 27.4933 31.1669 20 31.1669Z" fill="#757575"/>
</svg>
