<svg width="32" height="33" viewBox="0 0 32 33" fill="none" xmlns="http://www.w3.org/2000/svg">
<path d="M10.6666 8C10.12 8 9.66663 7.54667 9.66663 7V3C9.66663 2.45333 10.12 2 10.6666 2C11.2133 2 11.6666 2.45333 11.6666 3V7C11.6666 7.54667 11.2133 8 10.6666 8Z" fill="#757575"/>
<path d="M21.3334 8C20.7867 8 20.3334 7.54667 20.3334 7V3C20.3334 2.45333 20.7867 2 21.3334 2C21.88 2 22.3334 2.45333 22.3334 3V7C22.3334 7.54667 21.88 8 21.3334 8Z" fill="#757575"/>
<path d="M11.3333 19.6666C11.16 19.6666 10.9867 19.6266 10.8267 19.5599C10.6533 19.4933 10.52 19.3999 10.3867 19.2799C10.1467 19.0266 10 18.6933 10 18.3333C10 18.1599 10.04 17.9866 10.1067 17.8266C10.1733 17.6666 10.2667 17.5199 10.3867 17.3866C10.52 17.2666 10.6533 17.1732 10.8267 17.1066C11.3067 16.9066 11.9067 17.0133 12.28 17.3866C12.52 17.6399 12.6667 17.9866 12.6667 18.3333C12.6667 18.4133 12.6533 18.5066 12.64 18.5999C12.6267 18.6799 12.6 18.7599 12.56 18.8399C12.5333 18.9199 12.4933 18.9999 12.44 19.0799C12.4 19.1466 12.3333 19.2132 12.28 19.2799C12.0267 19.5199 11.68 19.6666 11.3333 19.6666Z" fill="#757575"/>
<path d="M16 19.6667C15.8266 19.6667 15.6533 19.6267 15.4933 19.56C15.32 19.4933 15.1866 19.4 15.0533 19.28C14.8133 19.0266 14.6666 18.6933 14.6666 18.3333C14.6666 18.16 14.7066 17.9867 14.7733 17.8267C14.84 17.6667 14.9333 17.52 15.0533 17.3867C15.1866 17.2667 15.32 17.1733 15.4933 17.1066C15.9733 16.8933 16.5733 17.0133 16.9466 17.3867C17.1866 17.64 17.3333 17.9867 17.3333 18.3333C17.3333 18.4133 17.32 18.5067 17.3066 18.6C17.2933 18.68 17.2666 18.76 17.2266 18.84C17.2 18.92 17.16 19 17.1066 19.08C17.0666 19.1467 17 19.2133 16.9466 19.28C16.6933 19.52 16.3466 19.6667 16 19.6667Z" fill="#757575"/>
<path d="M20.6667 19.6667C20.4934 19.6667 20.32 19.6267 20.16 19.56C19.9867 19.4933 19.8534 19.4 19.72 19.28C19.6667 19.2133 19.6134 19.1467 19.56 19.08C19.5067 19 19.4667 18.92 19.44 18.84C19.4 18.76 19.3734 18.68 19.36 18.6C19.3467 18.5067 19.3334 18.4133 19.3334 18.3333C19.3334 17.9867 19.48 17.64 19.72 17.3867C19.8534 17.2667 19.9867 17.1733 20.16 17.1066C20.6534 16.8933 21.24 17.0133 21.6134 17.3867C21.8534 17.64 22 17.9867 22 18.3333C22 18.4133 21.9867 18.5067 21.9734 18.6C21.96 18.68 21.9334 18.76 21.8934 18.84C21.8667 18.92 21.8267 19 21.7734 19.08C21.7334 19.1467 21.6667 19.2133 21.6134 19.28C21.36 19.52 21.0134 19.6667 20.6667 19.6667Z" fill="#757575"/>
<path d="M11.3333 24.3336C11.16 24.3336 10.9867 24.2936 10.8267 24.2269C10.6667 24.1603 10.52 24.0669 10.3867 23.9469C10.1467 23.6936 10 23.3469 10 23.0002C10 22.8269 10.04 22.6536 10.1067 22.4936C10.1733 22.3202 10.2667 22.1736 10.3867 22.0536C10.88 21.5603 11.7867 21.5603 12.28 22.0536C12.52 22.3069 12.6667 22.6536 12.6667 23.0002C12.6667 23.3469 12.52 23.6936 12.28 23.9469C12.0267 24.1869 11.68 24.3336 11.3333 24.3336Z" fill="#757575"/>
<path d="M16 24.3336C15.6533 24.3336 15.3066 24.1869 15.0533 23.9469C14.8133 23.6936 14.6666 23.3469 14.6666 23.0002C14.6666 22.8269 14.7066 22.6536 14.7733 22.4936C14.84 22.3202 14.9333 22.1736 15.0533 22.0536C15.5466 21.5603 16.4533 21.5603 16.9466 22.0536C17.0666 22.1736 17.16 22.3202 17.2266 22.4936C17.2933 22.6536 17.3333 22.8269 17.3333 23.0002C17.3333 23.3469 17.1866 23.6936 16.9466 23.9469C16.6933 24.1869 16.3466 24.3336 16 24.3336Z" fill="#757575"/>
<path d="M20.6667 24.3334C20.32 24.3334 19.9734 24.1867 19.72 23.9467C19.6 23.8267 19.5067 23.6801 19.44 23.5067C19.3734 23.3467 19.3334 23.1734 19.3334 23C19.3334 22.8267 19.3734 22.6534 19.44 22.4934C19.5067 22.32 19.6 22.1734 19.72 22.0534C20.0267 21.7467 20.4934 21.6 20.92 21.6934C21.0134 21.7067 21.0934 21.7334 21.1734 21.7734C21.2534 21.8 21.3334 21.8401 21.4134 21.8934C21.48 21.9334 21.5467 22.0001 21.6134 22.0534C21.8534 22.3067 22 22.6534 22 23C22 23.3467 21.8534 23.6934 21.6134 23.9467C21.36 24.1867 21.0134 24.3334 20.6667 24.3334Z" fill="#757575"/>
<path d="M27.3333 13.4531H4.66663C4.11996 13.4531 3.66663 12.9998 3.66663 12.4531C3.66663 11.9065 4.11996 11.4531 4.66663 11.4531H27.3333C27.88 11.4531 28.3333 11.9065 28.3333 12.4531C28.3333 12.9998 27.88 13.4531 27.3333 13.4531Z" fill="#757575"/>
<path d="M21.3333 30.6667H10.6667C5.8 30.6667 3 27.8667 3 23V11.6667C3 6.8 5.8 4 10.6667 4H21.3333C26.2 4 29 6.8 29 11.6667V23C29 27.8667 26.2 30.6667 21.3333 30.6667ZM10.6667 6C6.85333 6 5 7.85333 5 11.6667V23C5 26.8133 6.85333 28.6667 10.6667 28.6667H21.3333C25.1467 28.6667 27 26.8133 27 23V11.6667C27 7.85333 25.1467 6 21.3333 6H10.6667Z" fill="#757575"/>
</svg>
