<svg width="32" height="33" viewBox="0 0 32 33" fill="none" xmlns="http://www.w3.org/2000/svg">
<path d="M3.66663 9.59524C3.66663 8.60428 3.66722 7.91353 3.7058 7.3735C3.7437 6.84306 3.81452 6.53507 3.91694 6.30033C4.21959 5.60663 4.77326 5.05297 5.46695 4.75031C5.7017 4.64789 6.00968 4.57707 6.54013 4.53918C7.08015 4.50059 7.7709 4.5 8.76186 4.5C9.75283 4.5 10.4436 4.50059 10.9836 4.53918C11.514 4.57707 11.822 4.64789 12.0568 4.75031C12.7505 5.05297 13.3041 5.60663 13.6068 6.30033C13.7092 6.53507 13.78 6.84306 13.8179 7.3735C13.8565 7.91353 13.8571 8.60428 13.8571 9.59524C13.8571 10.5862 13.8565 11.2769 13.8179 11.817C13.78 12.3474 13.7092 12.6554 13.6068 12.8902C13.3041 13.5838 12.7505 14.1375 12.0568 14.4402C11.822 14.5426 11.514 14.6134 10.9836 14.6513C10.4436 14.6899 9.75283 14.6905 8.76186 14.6905C7.7709 14.6905 7.08015 14.6899 6.54013 14.6513C6.00968 14.6134 5.7017 14.5426 5.46695 14.4402C4.77326 14.1375 4.21959 13.5838 3.91694 12.8902C3.81452 12.6554 3.7437 12.3474 3.7058 11.817C3.66722 11.2769 3.66663 10.5862 3.66663 9.59524Z" stroke="#121212" stroke-width="2"/>
<path d="M3.66663 24.0718C3.66663 23.0808 3.66722 22.3901 3.7058 21.8501C3.7437 21.3196 3.81452 21.0116 3.91694 20.7769C4.21959 20.0832 4.77326 19.5295 5.46695 19.2269C5.7017 19.1245 6.00968 19.0536 6.54013 19.0157C7.08015 18.9772 7.7709 18.9766 8.76186 18.9766C9.75283 18.9766 10.4436 18.9772 10.9836 19.0157C11.514 19.0536 11.822 19.1245 12.0568 19.2269C12.7505 19.5295 13.3041 20.0832 13.6068 20.7769C13.7092 21.0116 13.78 21.3196 13.8179 21.8501C13.8565 22.3901 13.8571 23.0808 13.8571 24.0718C13.8571 25.0628 13.8565 25.7535 13.8179 26.2935C13.78 26.824 13.7092 27.132 13.6068 27.3667C13.3041 28.0604 12.7505 28.6141 12.0568 28.9167C11.822 29.0191 11.514 29.09 10.9836 29.1279C10.4436 29.1664 9.75283 29.167 8.76186 29.167C7.7709 29.167 7.08015 29.1664 6.54013 29.1279C6.00968 29.09 5.7017 29.0191 5.46695 28.9167C4.77326 28.6141 4.21959 28.0604 3.91694 27.3667C3.81452 27.132 3.7437 26.824 3.7058 26.2935C3.66722 25.7535 3.66663 25.0628 3.66663 24.0718Z" stroke="#121212" stroke-width="2"/>
<path d="M18.1429 9.59524C18.1429 8.60428 18.1435 7.91353 18.1821 7.3735C18.22 6.84306 18.2908 6.53507 18.3933 6.30033C18.6959 5.60663 19.2496 5.05297 19.9433 4.75031C20.178 4.64789 20.486 4.57707 21.0164 4.53918C21.5565 4.50059 22.2472 4.5 23.2382 4.5C24.2291 4.5 24.9199 4.50059 25.4599 4.53918C25.9904 4.57707 26.2984 4.64789 26.5331 4.75031C27.2268 5.05297 27.7805 5.60663 28.0831 6.30033C28.1855 6.53507 28.2563 6.84306 28.2942 7.3735C28.3328 7.91353 28.3334 8.60428 28.3334 9.59524C28.3334 10.5862 28.3328 11.2769 28.2942 11.817C28.2563 12.3474 28.1855 12.6554 28.0831 12.8902C27.7805 13.5838 27.2268 14.1375 26.5331 14.4402C26.2984 14.5426 25.9904 14.6134 25.4599 14.6513C24.9199 14.6899 24.2291 14.6905 23.2382 14.6905C22.2472 14.6905 21.5565 14.6899 21.0164 14.6513C20.486 14.6134 20.178 14.5426 19.9433 14.4402C19.2496 14.1375 18.6959 13.5838 18.3933 12.8902C18.2908 12.6554 18.22 12.3474 18.1821 11.817C18.1435 11.2769 18.1429 10.5862 18.1429 9.59524Z" stroke="#121212" stroke-width="2"/>
<path d="M18.1429 24.0718C18.1429 23.0808 18.1435 22.3901 18.1821 21.8501C18.22 21.3196 18.2908 21.0116 18.3933 20.7769C18.6959 20.0832 19.2496 19.5295 19.9433 19.2269C20.178 19.1245 20.486 19.0536 21.0164 19.0157C21.5565 18.9772 22.2472 18.9766 23.2382 18.9766C24.2291 18.9766 24.9199 18.9772 25.4599 19.0157C25.9904 19.0536 26.2984 19.1245 26.5331 19.2269C27.2268 19.5295 27.7805 20.0832 28.0831 20.7769C28.1855 21.0116 28.2563 21.3196 28.2942 21.8501C28.3328 22.3901 28.3334 23.0808 28.3334 24.0718C28.3334 25.0628 28.3328 25.7535 28.2942 26.2935C28.2563 26.824 28.1855 27.132 28.0831 27.3667C27.7805 28.0604 27.2268 28.6141 26.5331 28.9167C26.2984 29.0191 25.9904 29.09 25.4599 29.1279C24.9199 29.1664 24.2291 29.167 23.2382 29.167C22.2472 29.167 21.5565 29.1664 21.0164 29.1279C20.486 29.09 20.178 29.0191 19.9433 28.9167C19.2496 28.6141 18.6959 28.0604 18.3933 27.3667C18.2908 27.132 18.22 26.824 18.1821 26.2935C18.1435 25.7535 18.1429 25.0628 18.1429 24.0718Z" stroke="#121212" stroke-width="2"/>
</svg>
