<svg width="32" height="33" viewBox="0 0 32 33" fill="none" xmlns="http://www.w3.org/2000/svg">
<path d="M23.9997 11.3804C23.9597 11.3804 23.9331 11.3804 23.8931 11.3804H23.8264C21.3064 11.3004 19.4264 9.35367 19.4264 6.95367C19.4264 4.50034 21.4264 2.51367 23.8664 2.51367C26.3064 2.51367 28.3064 4.51367 28.3064 6.95367C28.2931 9.36701 26.4131 11.3137 24.0131 11.3937C24.0131 11.3803 24.0131 11.3804 23.9997 11.3804ZM23.8664 4.50035C22.5197 4.50035 21.4264 5.59368 21.4264 6.94035C21.4264 8.26035 22.4531 9.32702 23.7731 9.38035C23.7864 9.36702 23.8931 9.36702 24.0131 9.38035C25.3064 9.31368 26.3064 8.24701 26.3197 6.94035C26.3197 5.59368 25.2264 4.50035 23.8664 4.50035Z" fill="#757575"/>
<path d="M24.0134 21.2067C23.4934 21.2067 22.9734 21.1667 22.4534 21.0734C21.9067 20.98 21.5467 20.46 21.64 19.9134C21.7334 19.3667 22.2534 19.0067 22.8 19.1C24.44 19.38 26.1734 19.0734 27.3334 18.3C27.96 17.8867 28.2934 17.3667 28.2934 16.8467C28.2934 16.3267 27.9467 15.82 27.3334 15.4067C26.1734 14.6334 24.4134 14.3267 22.76 14.62C22.2134 14.7267 21.6934 14.3534 21.6 13.8067C21.5067 13.26 21.8667 12.74 22.4134 12.6467C24.5867 12.26 26.84 12.6734 28.44 13.74C29.6134 14.5267 30.2934 15.6467 30.2934 16.8467C30.2934 18.0334 29.6267 19.1667 28.44 19.9667C27.2267 20.7667 25.6534 21.2067 24.0134 21.2067Z" fill="#757575"/>
<path d="M7.96002 11.38C7.94668 11.38 7.93335 11.38 7.93335 11.38C5.53335 11.3 3.65335 9.35333 3.64001 6.95333C3.64001 4.5 5.64002 2.5 8.08002 2.5C10.52 2.5 12.52 4.5 12.52 6.94C12.52 9.35334 10.64 11.3 8.24002 11.38L7.96002 10.38L8.05335 11.38C8.02668 11.38 7.98668 11.38 7.96002 11.38ZM8.09335 9.38C8.17335 9.38 8.24002 9.38 8.32002 9.39333C9.50668 9.34 10.5467 8.27333 10.5467 6.95333C10.5467 5.60666 9.45335 4.51333 8.10668 4.51333C6.76002 4.51333 5.66668 5.60666 5.66668 6.95333C5.66668 8.26 6.68001 9.31333 7.97335 9.39333C7.98668 9.38 8.04002 9.38 8.09335 9.38Z" fill="#757575"/>
<path d="M7.94662 21.2067C6.30662 21.2067 4.73329 20.7667 3.51996 19.9667C2.34663 19.18 1.66663 18.0467 1.66663 16.8467C1.66663 15.66 2.34663 14.5267 3.51996 13.74C5.11996 12.6734 7.37329 12.26 9.54663 12.6467C10.0933 12.74 10.4533 13.26 10.36 13.8067C10.2666 14.3534 9.74663 14.7267 9.19996 14.62C7.54663 14.3267 5.79996 14.6334 4.62663 15.4067C3.99996 15.82 3.66663 16.3267 3.66663 16.8467C3.66663 17.3667 4.01329 17.8867 4.62663 18.3C5.78663 19.0734 7.51996 19.38 9.15996 19.1C9.70662 19.0067 10.2266 19.38 10.32 19.9134C10.4133 20.46 10.0533 20.98 9.50663 21.0734C8.98663 21.1667 8.46662 21.2067 7.94662 21.2067Z" fill="#757575"/>
<path d="M15.9997 21.3403C15.9597 21.3403 15.9331 21.3403 15.8931 21.3403H15.8264C13.3064 21.2603 11.4264 19.3136 11.4264 16.9136C11.4264 14.4603 13.4264 12.4736 15.8664 12.4736C18.3064 12.4736 20.3064 14.4736 20.3064 16.9136C20.2931 19.327 18.4131 21.2736 16.0131 21.3536C16.0131 21.3403 16.0131 21.3403 15.9997 21.3403ZM15.8664 14.4603C14.5197 14.4603 13.4264 15.5536 13.4264 16.9003C13.4264 18.2203 14.4531 19.287 15.7731 19.3403C15.7864 19.327 15.8931 19.327 16.0131 19.3403C17.3064 19.2736 18.3064 18.207 18.3197 16.9003C18.3197 15.567 17.2264 14.4603 15.8664 14.4603Z" fill="#757575"/>
<path d="M15.9998 31.18C14.3998 31.18 12.7998 30.7666 11.5598 29.9266C10.3864 29.14 9.70642 28.02 9.70642 26.82C9.70642 25.6333 10.3731 24.4866 11.5598 23.7C14.0531 22.0466 17.9598 22.0466 20.4398 23.7C21.6131 24.4866 22.2931 25.6066 22.2931 26.8066C22.2931 27.9933 21.6264 29.14 20.4398 29.9266C19.1998 30.7533 17.5998 31.18 15.9998 31.18ZM12.6664 25.38C12.0398 25.7933 11.7064 26.3133 11.7064 26.8333C11.7064 27.3533 12.0531 27.86 12.6664 28.2733C14.4664 29.4866 17.5198 29.4866 19.3198 28.2733C19.9464 27.86 20.2798 27.34 20.2798 26.82C20.2798 26.3 19.9331 25.7933 19.3198 25.38C17.5331 24.1666 14.4798 24.18 12.6664 25.38Z" fill="#757575"/>
</svg>
