<svg width="32" height="33" viewBox="0 0 32 33" fill="none" xmlns="http://www.w3.org/2000/svg">
<path d="M16 21.8335C13.24 21.8335 11 19.5935 11 16.8335C11 14.0735 13.24 11.8335 16 11.8335C18.76 11.8335 21 14.0735 21 16.8335C21 19.5935 18.76 21.8335 16 21.8335ZM16 13.8335C14.3467 13.8335 13 15.1802 13 16.8335C13 18.4868 14.3467 19.8335 16 19.8335C17.6533 19.8335 19 18.4868 19 16.8335C19 15.1802 17.6533 13.8335 16 13.8335Z" fill="#757575"/>
<path d="M20.28 30.4199C20 30.4199 19.72 30.3799 19.44 30.3132C18.6133 30.0866 17.92 29.5666 17.48 28.8332L17.32 28.5666C16.5333 27.2066 15.4533 27.2066 14.6666 28.5666L14.52 28.8199C14.08 29.5666 13.3866 30.0999 12.56 30.3132C11.72 30.5399 10.8533 30.4199 10.12 29.9799L7.82663 28.6599C7.01329 28.1932 6.42663 27.4332 6.17329 26.5132C5.93329 25.5932 6.05329 24.6466 6.51996 23.8332C6.90663 23.1532 7.01329 22.5399 6.78663 22.1532C6.55996 21.7666 5.98663 21.5399 5.19996 21.5399C3.25329 21.5399 1.66663 19.9532 1.66663 18.0066V15.6599C1.66663 13.7132 3.25329 12.1266 5.19996 12.1266C5.98663 12.1266 6.55996 11.8999 6.78663 11.5132C7.01329 11.1266 6.91996 10.5132 6.51996 9.83323C6.05329 9.01989 5.93329 8.05989 6.17329 7.15323C6.41329 6.23323 6.99996 5.47323 7.82663 5.00656L10.1333 3.68656C11.64 2.79323 13.6266 3.31323 14.5333 4.84656L14.6933 5.11323C15.48 6.47323 16.56 6.47323 17.3466 5.11323L17.4933 4.85989C18.4 3.31323 20.3866 2.79323 21.9066 3.69989L24.2 5.01989C25.0133 5.48656 25.6 6.24656 25.8533 7.16656C26.0933 8.08656 25.9733 9.03323 25.5066 9.84656C25.12 10.5266 25.0133 11.1399 25.24 11.5266C25.4666 11.9132 26.04 12.1399 26.8266 12.1399C28.7733 12.1399 30.36 13.7266 30.36 15.6732V18.0199C30.36 19.9666 28.7733 21.5532 26.8266 21.5532C26.04 21.5532 25.4666 21.7799 25.24 22.1666C25.0133 22.5532 25.1066 23.1666 25.5066 23.8466C25.9733 24.6599 26.1066 25.6199 25.8533 26.5266C25.6133 27.4466 25.0266 28.2066 24.2 28.6732L21.8933 29.9932C21.3866 30.2732 20.84 30.4199 20.28 30.4199ZM16 25.4866C17.1866 25.4866 18.2933 26.2332 19.0533 27.5532L19.2 27.8066C19.36 28.0866 19.6266 28.2866 19.9466 28.3666C20.2666 28.4466 20.5866 28.4066 20.8533 28.2466L23.16 26.9132C23.5066 26.7132 23.7733 26.3799 23.88 25.9799C23.9866 25.5799 23.9333 25.1666 23.7333 24.8199C22.9733 23.5132 22.88 22.1666 23.4666 21.1399C24.0533 20.1132 25.2666 19.5266 26.7866 19.5266C27.64 19.5266 28.32 18.8466 28.32 17.9932V15.6466C28.32 14.8066 27.64 14.1132 26.7866 14.1132C25.2666 14.1132 24.0533 13.5266 23.4666 12.4999C22.88 11.4732 22.9733 10.1266 23.7333 8.81989C23.9333 8.47323 23.9866 8.05989 23.88 7.65989C23.7733 7.25989 23.52 6.93989 23.1733 6.72656L20.8666 5.40656C20.2933 5.05989 19.5333 5.25989 19.1866 5.84656L19.04 6.09989C18.28 7.41989 17.1733 8.16656 15.9866 8.16656C14.8 8.16656 13.6933 7.41989 12.9333 6.09989L12.7866 5.83323C12.4533 5.27323 11.7066 5.07323 11.1333 5.40656L8.82663 6.73989C8.47996 6.93989 8.21329 7.27323 8.10663 7.67323C7.99996 8.07323 8.05329 8.48656 8.25329 8.83323C9.01329 10.1399 9.10663 11.4866 8.51996 12.5132C7.93329 13.5399 6.71996 14.1266 5.19996 14.1266C4.34663 14.1266 3.66663 14.8066 3.66663 15.6599V18.0066C3.66663 18.8466 4.34663 19.5399 5.19996 19.5399C6.71996 19.5399 7.93329 20.1266 8.51996 21.1532C9.10663 22.1799 9.01329 23.5266 8.25329 24.8332C8.05329 25.1799 7.99996 25.5932 8.10663 25.9932C8.21329 26.3932 8.46663 26.7132 8.81329 26.9266L11.12 28.2466C11.4 28.4199 11.7333 28.4599 12.04 28.3799C12.36 28.2999 12.6266 28.0866 12.8 27.8066L12.9466 27.5532C13.7066 26.2466 14.8133 25.4866 16 25.4866Z" fill="#757575"/>
</svg>
