<svg width="32" height="33" viewBox="0 0 32 33" fill="none" xmlns="http://www.w3.org/2000/svg">
<path d="M17.3334 16.7002H9.33337C8.78671 16.7002 8.33337 16.2469 8.33337 15.7002C8.33337 15.1535 8.78671 14.7002 9.33337 14.7002H17.3334C17.88 14.7002 18.3334 15.1535 18.3334 15.7002C18.3334 16.2469 17.88 16.7002 17.3334 16.7002Z" fill="#757575"/>
<path d="M2.66663 16.7006C2.11996 16.7006 1.66663 16.2473 1.66663 15.7006V9.54061C1.66663 6.27394 4.31996 3.62061 7.58663 3.62061H15.08C18.5066 3.62061 21 5.9006 21 9.03394C21 9.5806 20.5466 10.0339 20 10.0339C19.4533 10.0339 19 9.5806 19 9.03394C19 6.68727 16.96 5.62061 15.08 5.62061H7.58663C5.42663 5.62061 3.66663 7.38061 3.66663 9.54061V15.7006C3.66663 16.2606 3.21329 16.7006 2.66663 16.7006Z" fill="#757575"/>
<path d="M21.3333 30.0332H7.99996C4.50663 30.0332 1.66663 27.1932 1.66663 23.6999V14.3665C1.66663 10.8732 4.50663 8.0332 7.99996 8.0332H21.3333C24.8266 8.0332 27.6666 10.8732 27.6666 14.3665V16.2998C27.6666 16.8465 27.2133 17.2998 26.6666 17.2998H25.2266C24.7599 17.2998 24.3333 17.4731 24.0267 17.7931L24.0133 17.8065C23.5733 18.2465 23.3999 18.8598 23.5599 19.4598C23.7599 20.2065 24.5466 20.7532 25.4266 20.7532H26.6666C27.2133 20.7532 27.6666 21.2065 27.6666 21.7532V23.6865C27.6666 27.1932 24.8266 30.0332 21.3333 30.0332ZM7.99996 10.0332C5.61329 10.0332 3.66663 11.9799 3.66663 14.3665V23.6999C3.66663 26.0865 5.61329 28.0332 7.99996 28.0332H21.3333C23.72 28.0332 25.6666 26.0865 25.6666 23.6999V22.7665H25.4266C23.6266 22.7665 22.0666 21.6332 21.6266 19.9932C21.2799 18.6998 21.6533 17.3265 22.6 16.3931C23.2933 15.6865 24.2266 15.2998 25.2266 15.2998H25.6666V14.3665C25.6666 11.9799 23.72 10.0332 21.3333 10.0332H7.99996V10.0332Z" fill="#757575"/>
<path d="M27.9599 22.767H25.3866C23.3732 22.767 21.6666 21.2737 21.5066 19.3537C21.3999 18.247 21.7999 17.167 22.5999 16.3803C23.2666 15.687 24.2132 15.3003 25.2132 15.3003H27.9466C29.2533 15.3003 30.3199 16.3537 30.3199 17.6603V20.407C30.3332 21.7136 29.2665 22.767 27.9599 22.767ZM25.2266 17.3003C24.7599 17.3003 24.3333 17.4736 24.0266 17.7936C23.6399 18.167 23.4533 18.6737 23.5066 19.1803C23.5733 20.0603 24.4266 20.767 25.3866 20.767H27.9599C28.1599 20.767 28.3333 20.607 28.3333 20.407V17.6603C28.3333 17.4603 28.1599 17.3003 27.9599 17.3003H25.2266V17.3003Z" fill="#757575"/>
</svg>
